<svg width="47" height="54" viewBox="0 0 47 54" fill="none" xmlns="http://www.w3.org/2000/svg">
<path d="M11.7696 17.3601C11.7695 16.6494 12.1467 15.992 12.7604 15.6334L25.7413 8.04684C26.3647 7.68247 27.1362 7.68248 27.7596 8.04687L40.7397 15.6334C41.3533 15.992 41.7305 16.6493 41.7305 17.36L41.7309 33.2636C41.7309 34.3682 40.8355 35.2637 39.7309 35.2637H13.7699C12.6654 35.2637 11.77 34.3683 11.7699 33.2637L11.7696 17.3601Z" fill="#4C4577"/>
<g filter="url(#filter0_dd_42_15640)">
<path d="M34.2792 25.2012H8.72081L21.5 17.3371L34.2792 25.2012Z" fill="#E3D7FB" stroke="#CCB7F8" stroke-width="0.125"/>
<path d="M8.5 25.2637H34.5L21.5 17.2637L8.5 25.2637Z" stroke="#CCB7F8" stroke-width="2" stroke-linecap="round" stroke-linejoin="round"/>
<path d="M12.5 25.2637V35.2637" stroke="#CCB7F8" stroke-width="2" stroke-linecap="round" stroke-linejoin="round"/>
<path d="M18.5 25.2637V35.2637" stroke="#CCB7F8" stroke-width="2" stroke-linecap="round" stroke-linejoin="round"/>
<path d="M24.5 25.2637V35.2637" stroke="#CCB7F8" stroke-width="2" stroke-linecap="round" stroke-linejoin="round"/>
<path d="M30.5 25.2637V35.2637" stroke="#CCB7F8" stroke-width="2" stroke-linecap="round" stroke-linejoin="round"/>
<path d="M9.5 35.2637H33.5" stroke="#CCB7F8" stroke-width="2" stroke-linecap="round" stroke-linejoin="round"/>
</g>
<path d="M7.5 39.2637H35.5" stroke="#F8F5FE" stroke-width="2" stroke-linecap="round" stroke-linejoin="round"/>
<path d="M32.8251 13.8953C32.7206 14.0597 32.665 14.2505 32.665 14.4453C32.665 14.6401 32.7206 14.8309 32.8251 14.9953C33.5376 16.0953 35.4251 18.4453 38.5001 18.4453C41.5751 18.4453 43.4626 16.0953 44.1751 14.9953C44.2796 14.8309 44.3352 14.6401 44.3352 14.4453C44.3352 14.2505 44.2796 14.0597 44.1751 13.8953C43.4626 12.7953 41.5751 10.4453 38.5001 10.4453C35.4251 10.4453 33.5376 12.7953 32.8251 13.8953Z" stroke="#F7F6F9" stroke-width="2" stroke-linecap="round" stroke-linejoin="round"/>
<path d="M38.5 15.9453C39.3284 15.9453 40 15.2737 40 14.4453C40 13.6169 39.3284 12.9453 38.5 12.9453C37.6716 12.9453 37 13.6169 37 14.4453C37 15.2737 37.6716 15.9453 38.5 15.9453Z" fill="#F7F6F9"/>
<defs>
<filter id="filter0_dd_42_15640" x="0.499939" y="16.2637" width="42.0001" height="37" filterUnits="userSpaceOnUse" color-interpolation-filters="sRGB">
<feFlood flood-opacity="0" result="BackgroundImageFix"/>
<feColorMatrix in="SourceAlpha" type="matrix" values="0 0 0 0 0 0 0 0 0 0 0 0 0 0 0 0 0 0 127 0" result="hardAlpha"/>
<feOffset dy="2"/>
<feGaussianBlur stdDeviation="1"/>
<feComposite in2="hardAlpha" operator="out"/>
<feColorMatrix type="matrix" values="0 0 0 0 0 0 0 0 0 0 0 0 0 0 0 0 0 0 0.1 0"/>
<feBlend mode="normal" in2="BackgroundImageFix" result="effect1_dropShadow_42_15640"/>
<feColorMatrix in="SourceAlpha" type="matrix" values="0 0 0 0 0 0 0 0 0 0 0 0 0 0 0 0 0 0 127 0" result="hardAlpha"/>
<feMorphology radius="3" operator="erode" in="SourceAlpha" result="effect2_dropShadow_42_15640"/>
<feOffset dy="10"/>
<feGaussianBlur stdDeviation="5"/>
<feComposite in2="hardAlpha" operator="out"/>
<feColorMatrix type="matrix" values="0 0 0 0 0 0 0 0 0 0 0 0 0 0 0 0 0 0 0.1 0"/>
<feBlend mode="normal" in2="effect1_dropShadow_42_15640" result="effect2_dropShadow_42_15640"/>
<feBlend mode="normal" in="SourceGraphic" in2="effect2_dropShadow_42_15640" result="shape"/>
</filter>
</defs>
</svg>
