<svg width="43" height="51" viewBox="0 0 43 51" fill="none" xmlns="http://www.w3.org/2000/svg">
<rect y="12.707" width="27.8066" height="27.8066" rx="2" fill="#4C4577"/>
<g filter="url(#filter0_dd_42_15588)">
<rect x="12.8066" y="10.457" width="22" height="22" rx="2" fill="#E3D7FB"/>
<path d="M30.3066 10.457H33.8066C34.0719 10.457 34.3262 10.5624 34.5137 10.7499C34.7013 10.9375 34.8066 11.1918 34.8066 11.457V14.957" stroke="#B292F4" stroke-width="2" stroke-linecap="round" stroke-linejoin="round"/>
<path d="M30.3066 32.457H33.8066C34.0719 32.457 34.3262 32.3517 34.5137 32.1641C34.7013 31.9766 34.8066 31.7222 34.8066 31.457V27.957" stroke="#B292F4" stroke-width="2" stroke-linecap="round" stroke-linejoin="round"/>
<path d="M17.3066 32.457H13.8066C13.5414 32.457 13.2871 32.3517 13.0995 32.1641C12.912 31.9766 12.8066 31.7222 12.8066 31.457V27.957" stroke="#B292F4" stroke-width="2" stroke-linecap="round" stroke-linejoin="round"/>
<path d="M17.3066 10.457H13.8066C13.5414 10.457 13.2871 10.5624 13.0995 10.7499C12.912 10.9375 12.8066 11.1918 12.8066 11.457V14.957" stroke="#B292F4" stroke-width="2" stroke-linecap="round" stroke-linejoin="round"/>
<path d="M23.8066 23.457C26.0158 23.457 27.8066 21.6662 27.8066 19.457C27.8066 17.2479 26.0158 15.457 23.8066 15.457C21.5975 15.457 19.8066 17.2479 19.8066 19.457C19.8066 21.6662 21.5975 23.457 23.8066 23.457Z" fill="#F8F5FE"/>
<path d="M23.8066 23.457C26.0158 23.457 27.8066 21.6662 27.8066 19.457C27.8066 17.2479 26.0158 15.457 23.8066 15.457C21.5975 15.457 19.8066 17.2479 19.8066 19.457C19.8066 21.6662 21.5975 23.457 23.8066 23.457Z" stroke="#4C4577" stroke-width="2" stroke-linecap="round" stroke-linejoin="round"/>
<path d="M17.1699 27.4567C17.8092 26.2509 18.7648 25.242 19.9342 24.5383C21.1036 23.8347 22.4426 23.4629 23.8074 23.4629C25.1722 23.4629 26.5112 23.8347 27.6806 24.5383C28.85 25.242 29.8057 26.2509 30.4449 27.4567" stroke="#4C4577" stroke-width="2" stroke-linecap="round" stroke-linejoin="round"/>
</g>
<path d="M4.20996 31.6318H5.625" stroke="#F8F5FE" stroke-width="2" stroke-linecap="round" stroke-linejoin="round"/>
<path d="M4.20996 35.7241H5.625" stroke="#F8F5FE" stroke-width="2" stroke-linecap="round" stroke-linejoin="round"/>
<path d="M4.20996 27.457H5.625" stroke="#F8F5FE" stroke-width="2" stroke-linecap="round" stroke-linejoin="round"/>
<defs>
<filter id="filter0_dd_42_15588" x="4.80664" y="9.45703" width="38" height="41" filterUnits="userSpaceOnUse" color-interpolation-filters="sRGB">
<feFlood flood-opacity="0" result="BackgroundImageFix"/>
<feColorMatrix in="SourceAlpha" type="matrix" values="0 0 0 0 0 0 0 0 0 0 0 0 0 0 0 0 0 0 127 0" result="hardAlpha"/>
<feOffset dy="2"/>
<feGaussianBlur stdDeviation="1"/>
<feComposite in2="hardAlpha" operator="out"/>
<feColorMatrix type="matrix" values="0 0 0 0 0 0 0 0 0 0 0 0 0 0 0 0 0 0 0.1 0"/>
<feBlend mode="normal" in2="BackgroundImageFix" result="effect1_dropShadow_42_15588"/>
<feColorMatrix in="SourceAlpha" type="matrix" values="0 0 0 0 0 0 0 0 0 0 0 0 0 0 0 0 0 0 127 0" result="hardAlpha"/>
<feMorphology radius="3" operator="erode" in="SourceAlpha" result="effect2_dropShadow_42_15588"/>
<feOffset dy="10"/>
<feGaussianBlur stdDeviation="5"/>
<feComposite in2="hardAlpha" operator="out"/>
<feColorMatrix type="matrix" values="0 0 0 0 0 0 0 0 0 0 0 0 0 0 0 0 0 0 0.1 0"/>
<feBlend mode="normal" in2="effect1_dropShadow_42_15588" result="effect2_dropShadow_42_15588"/>
<feBlend mode="normal" in="SourceGraphic" in2="effect2_dropShadow_42_15588" result="shape"/>
</filter>
</defs>
</svg>
