<svg width="56" height="56" viewBox="0 0 56 56" fill="none" xmlns="http://www.w3.org/2000/svg">
<rect x="6.08789" y="14.6445" width="34.1631" height="26.9092" rx="2" fill="#37315B"/>
<path d="M15.4785 25.7041H27.6836V47.6459H15.4785" fill="#987DD2"/>
<path d="M15.4785 25.7041H27.6836V47.6459H15.4785" stroke="#CCB7F8" stroke-width="2.12" stroke-linecap="round" stroke-linejoin="round"/>
<path d="M3 25.7046V47.6464L15.4794 50.3892V22.9619L3 25.7046Z" fill="#E3D7FB" stroke="#CCB7F8" stroke-width="2.12" stroke-linecap="round" stroke-linejoin="round"/>
<path d="M11.2285 35.3037V38.0464" stroke="#524372" stroke-width="2.12" stroke-linecap="round" stroke-linejoin="round"/>
<path d="M31.9346 34.8056L34.3933 37.2644L31.9346 39.7231" stroke="#F8F5FE" stroke-width="2.12" stroke-linecap="round" stroke-linejoin="round"/>
<path d="M24.126 34.8056L26.5847 37.2644L24.126 39.7231" stroke="#F8F5FE" stroke-width="2.12" stroke-linecap="round" stroke-linejoin="round"/>
<path d="M38.5245 13.1988H30.2636C30.0355 13.1988 29.8506 13.3837 29.8506 13.6119V19.3944C29.8506 19.6226 30.0355 19.8075 30.2636 19.8075H38.5245C38.7526 19.8075 38.9375 19.6226 38.9375 19.3944V13.6119C38.9375 13.3837 38.7526 13.1988 38.5245 13.1988Z" fill="#987DD2"/>
<path d="M38.5245 13.1988H30.2636C30.0355 13.1988 29.8506 13.3837 29.8506 13.6119V19.3944C29.8506 19.6226 30.0355 19.8075 30.2636 19.8075H38.5245C38.7526 19.8075 38.9375 19.6226 38.9375 19.3944V13.6119C38.9375 13.3837 38.7526 13.1988 38.5245 13.1988Z" stroke="#CCB7F8" stroke-width="2.12" stroke-linecap="round" stroke-linejoin="round"/>
<path d="M32.5354 13.1988V11.3401C32.5354 10.8472 32.7312 10.3744 33.0798 10.0258C33.4283 9.67727 33.9011 9.48145 34.3941 9.48145C34.887 9.48145 35.3598 9.67727 35.7083 10.0258" stroke="#CCB7F8" stroke-width="2.12" stroke-linecap="round" stroke-linejoin="round"/>
</svg>
