<svg width="70" height="71" viewBox="0 0 70 71" fill="none" xmlns="http://www.w3.org/2000/svg">
<rect x="14" y="21" width="38" height="27" rx="2" fill="#4C4577"/>
<path d="M11.7056 26.647L14.3528 23.9998L17 26.647" stroke="#F8F5FE" stroke-width="2" stroke-linecap="round" stroke-linejoin="round"/>
<path d="M54.1469 39L51.4997 41.6472L48.8525 39" stroke="#F8F5FE" stroke-width="2" stroke-linecap="round" stroke-linejoin="round"/>
<g filter="url(#filter0_dd_42_10367)">
<path d="M33 52.4995H8" stroke="#CCB7F8" stroke-width="2" stroke-linecap="round" stroke-linejoin="round"/>
<path d="M31 31.4995H24V52.4995H31V31.4995Z" fill="#B292F4" stroke="#CCB7F8" stroke-width="2" stroke-linecap="round" stroke-linejoin="round"/>
<path d="M24 37.4995H17V52.4995H24V37.4995Z" fill="#987DD2" stroke="#CCB7F8" stroke-width="2" stroke-linecap="round" stroke-linejoin="round"/>
<path d="M17 43.4995H10V52.4995H17V43.4995Z" fill="#67548E" stroke="#CCB7F8" stroke-width="2" stroke-linecap="round" stroke-linejoin="round"/>
</g>
<g filter="url(#filter1_dd_42_10367)">
<path d="M61.4375 27.5C61.4375 29.3985 59.8985 30.9375 58 30.9375C56.1015 30.9375 54.5625 29.3985 54.5625 27.5C54.5625 25.6015 56.1015 24.0625 58 24.0625C59.8985 24.0625 61.4375 25.6015 61.4375 27.5Z" fill="#E3D7FB" stroke="#CCB7F8" stroke-width="0.125"/>
<path d="M60.5 12L42.5 30" stroke="#CCB7F8" stroke-width="2" stroke-linecap="round" stroke-linejoin="round"/>
<path d="M58 31C59.933 31 61.5 29.433 61.5 27.5C61.5 25.567 59.933 24 58 24C56.067 24 54.5 25.567 54.5 27.5C54.5 29.433 56.067 31 58 31Z" fill="#987DD2" stroke="#CCB7F8" stroke-width="2" stroke-linecap="round" stroke-linejoin="round"/>
<path d="M45 18C46.933 18 48.5 16.433 48.5 14.5C48.5 12.567 46.933 11 45 11C43.067 11 41.5 12.567 41.5 14.5C41.5 16.433 43.067 18 45 18Z" fill="#987DD2" stroke="#CCB7F8" stroke-width="2" stroke-linecap="round" stroke-linejoin="round"/>
</g>
<defs>
<filter id="filter0_dd_42_10367" x="0" y="30.4995" width="41" height="40" filterUnits="userSpaceOnUse" color-interpolation-filters="sRGB">
<feFlood flood-opacity="0" result="BackgroundImageFix"/>
<feColorMatrix in="SourceAlpha" type="matrix" values="0 0 0 0 0 0 0 0 0 0 0 0 0 0 0 0 0 0 127 0" result="hardAlpha"/>
<feOffset dy="2"/>
<feGaussianBlur stdDeviation="1"/>
<feComposite in2="hardAlpha" operator="out"/>
<feColorMatrix type="matrix" values="0 0 0 0 0 0 0 0 0 0 0 0 0 0 0 0 0 0 0.1 0"/>
<feBlend mode="normal" in2="BackgroundImageFix" result="effect1_dropShadow_42_10367"/>
<feColorMatrix in="SourceAlpha" type="matrix" values="0 0 0 0 0 0 0 0 0 0 0 0 0 0 0 0 0 0 127 0" result="hardAlpha"/>
<feMorphology radius="3" operator="erode" in="SourceAlpha" result="effect2_dropShadow_42_10367"/>
<feOffset dy="10"/>
<feGaussianBlur stdDeviation="5"/>
<feComposite in2="hardAlpha" operator="out"/>
<feColorMatrix type="matrix" values="0 0 0 0 0 0 0 0 0 0 0 0 0 0 0 0 0 0 0.1 0"/>
<feBlend mode="normal" in2="effect1_dropShadow_42_10367" result="effect2_dropShadow_42_10367"/>
<feBlend mode="normal" in="SourceGraphic" in2="effect2_dropShadow_42_10367" result="shape"/>
</filter>
<filter id="filter1_dd_42_10367" x="33.5" y="10" width="36" height="39" filterUnits="userSpaceOnUse" color-interpolation-filters="sRGB">
<feFlood flood-opacity="0" result="BackgroundImageFix"/>
<feColorMatrix in="SourceAlpha" type="matrix" values="0 0 0 0 0 0 0 0 0 0 0 0 0 0 0 0 0 0 127 0" result="hardAlpha"/>
<feOffset dy="2"/>
<feGaussianBlur stdDeviation="1"/>
<feComposite in2="hardAlpha" operator="out"/>
<feColorMatrix type="matrix" values="0 0 0 0 0 0 0 0 0 0 0 0 0 0 0 0 0 0 0.1 0"/>
<feBlend mode="normal" in2="BackgroundImageFix" result="effect1_dropShadow_42_10367"/>
<feColorMatrix in="SourceAlpha" type="matrix" values="0 0 0 0 0 0 0 0 0 0 0 0 0 0 0 0 0 0 127 0" result="hardAlpha"/>
<feMorphology radius="3" operator="erode" in="SourceAlpha" result="effect2_dropShadow_42_10367"/>
<feOffset dy="10"/>
<feGaussianBlur stdDeviation="5"/>
<feComposite in2="hardAlpha" operator="out"/>
<feColorMatrix type="matrix" values="0 0 0 0 0 0 0 0 0 0 0 0 0 0 0 0 0 0 0.1 0"/>
<feBlend mode="normal" in2="effect1_dropShadow_42_10367" result="effect2_dropShadow_42_10367"/>
<feBlend mode="normal" in="SourceGraphic" in2="effect2_dropShadow_42_10367" result="shape"/>
</filter>
</defs>
</svg>
